<svg width="32" height="28" viewBox="0 0 32 28" fill="none" xmlns="http://www.w3.org/2000/svg">
<path d="M31.0625 25.4375H0.9375C0.41975 25.4375 0 25.0177 0 24.5V17.875C0 16.3242 1.26169 15.0625 2.8125 15.0625H29.1875C30.7383 15.0625 32 16.3242 32 17.875V24.5C32 25.0177 31.5802 25.4375 31.0625 25.4375ZM1.875 23.5625H30.125V17.875C30.125 17.3581 29.7044 16.9375 29.1875 16.9375H2.8125C2.29556 16.9375 1.875 17.3581 1.875 17.875V23.5625Z" fill="#5843BE"/>
<path d="M5 27.9375C4.48225 27.9375 4.0625 27.5178 4.0625 27V24.5C4.0625 23.9822 4.48225 23.5625 5 23.5625C5.51775 23.5625 5.9375 23.9822 5.9375 24.5V27C5.9375 27.5178 5.51775 27.9375 5 27.9375Z" fill="#5843BE"/>
<path d="M27 27.9375C26.4822 27.9375 26.0625 27.5178 26.0625 27V24.5C26.0625 23.9822 26.4822 23.5625 27 23.5625C27.5178 23.5625 27.9375 23.9822 27.9375 24.5V27C27.9375 27.5178 27.5178 27.9375 27 27.9375Z" fill="#5843BE"/>
<path d="M14 16.9375H8C7.48225 16.9375 7.0625 16.5177 7.0625 16V11C7.0625 10.4822 7.48225 10.0625 8 10.0625H14C14.5177 10.0625 14.9375 10.4822 14.9375 11V16C14.9375 16.5177 14.5177 16.9375 14 16.9375ZM8.9375 15.0625H13.0625V11.9375H8.9375V15.0625Z" fill="#5843BE"/>
<path d="M24 16.9375H18C17.4822 16.9375 17.0625 16.5177 17.0625 16V11C17.0625 10.4822 17.4822 10.0625 18 10.0625H24C24.5177 10.0625 24.9375 10.4822 24.9375 11V16C24.9375 16.5177 24.5177 16.9375 24 16.9375ZM18.9375 15.0625H23.0625V11.9375H18.9375V15.0625Z" fill="#5843BE"/>
<path d="M29 16.9375H3C2.48225 16.9375 2.0625 16.5177 2.0625 16V14C2.0625 10.2772 3.51225 6.77719 6.14469 4.14469C8.77713 1.51219 12.2772 0.0625 16 0.0625C19.7173 0.0625 23.2143 1.50937 25.8471 4.13656C28.4848 6.76875 29.9375 10.2716 29.9375 14V16C29.9375 16.5177 29.5177 16.9375 29 16.9375ZM3.9375 15.0625H28.0625V14C28.0625 7.34875 22.6513 1.9375 16 1.9375C9.34875 1.9375 3.9375 7.34875 3.9375 14V15.0625Z" fill="#5843BE"/>
</svg>
