<svg width="28" height="32" viewBox="0 0 28 32" fill="none" xmlns="http://www.w3.org/2000/svg">
<path d="M24.625 29.9375H3.375C1.82419 29.9375 0.5625 28.6758 0.5625 27.125V2.8125C0.5625 1.26169 1.82419 0 3.375 0H24.625C26.1758 0 27.4375 1.26169 27.4375 2.8125V27.125C27.4375 28.6758 26.1758 29.9375 24.625 29.9375ZM3.375 1.875C2.85806 1.875 2.4375 2.29556 2.4375 2.8125V27.125C2.4375 27.6419 2.85806 28.0625 3.375 28.0625H24.625C25.1419 28.0625 25.5625 27.6419 25.5625 27.125V2.8125C25.5625 2.29556 25.1419 1.875 24.625 1.875H3.375Z" fill="#5843BE"/>
<path d="M6 32C5.48225 32 5.0625 31.5803 5.0625 31.0625V29C5.0625 28.4822 5.48225 28.0625 6 28.0625C6.51775 28.0625 6.9375 28.4822 6.9375 29V31.0625C6.9375 31.5803 6.51775 32 6 32Z" fill="#5843BE"/>
<path d="M22 32C21.4822 32 21.0625 31.5803 21.0625 31.0625V29C21.0625 28.4822 21.4822 28.0625 22 28.0625C22.5178 28.0625 22.9375 28.4822 22.9375 29V31.0625C22.9375 31.5803 22.5178 32 22 32Z" fill="#5843BE"/>
<path d="M14 29.9375C13.4822 29.9375 13.0625 29.5177 13.0625 29V0.9375C13.0625 0.41975 13.4822 0 14 0C14.5178 0 14.9375 0.41975 14.9375 0.9375V29C14.9375 29.5177 14.5178 29.9375 14 29.9375Z" fill="#5843BE"/>
<path d="M26.5 21.9375H14C13.4822 21.9375 13.0625 21.5178 13.0625 21C13.0625 20.4822 13.4822 20.0625 14 20.0625H26.5C27.0177 20.0625 27.4375 20.4822 27.4375 21C27.4375 21.5178 27.0177 21.9375 26.5 21.9375Z" fill="#5843BE"/>
<path d="M21 26H19.5C18.9822 26 18.5625 25.5803 18.5625 25.0625C18.5625 24.5447 18.9822 24.125 19.5 24.125H21C21.5178 24.125 21.9375 24.5447 21.9375 25.0625C21.9375 25.5803 21.5178 26 21 26Z" fill="#5843BE"/>
<path d="M10 15.9375C9.48225 15.9375 9.0625 15.5178 9.0625 15V13.5C9.0625 12.9822 9.48225 12.5625 10 12.5625C10.5178 12.5625 10.9375 12.9822 10.9375 13.5V15C10.9375 15.5178 10.5178 15.9375 10 15.9375Z" fill="#5843BE"/>
<path d="M18 15.9375C17.4822 15.9375 17.0625 15.5178 17.0625 15V13.5C17.0625 12.9822 17.4822 12.5625 18 12.5625C18.5178 12.5625 18.9375 12.9822 18.9375 13.5V15C18.9375 15.5178 18.5178 15.9375 18 15.9375Z" fill="#5843BE"/>
</svg>
